<svg id="Component_19_1" data-name="Component 19 – 1" xmlns="http://www.w3.org/2000/svg" width="88.678" height="88.678" viewBox="0 0 88.678 88.678">
  <g id="Path_7" data-name="Path 7" fill="#fff">
    <path d="M44.339,0A44.339,44.339,0,1,1,0,44.339,44.339,44.339,0,0,1,44.339,0Z" stroke="none"/>
    <path d="M 44.3392333984375 7 C 23.75030517578125 7 7 23.75030517578125 7 44.3392333984375 C 7 64.92816162109375 23.75030517578125 81.678466796875 44.3392333984375 81.678466796875 C 64.92816162109375 81.678466796875 81.678466796875 64.92816162109375 81.678466796875 44.3392333984375 C 81.678466796875 23.75030517578125 64.92816162109375 7 44.3392333984375 7 M 44.3392333984375 0 C 68.82710266113281 0 88.678466796875 19.85134124755859 88.678466796875 44.3392333984375 C 88.678466796875 68.82710266113281 68.82710266113281 88.678466796875 44.3392333984375 88.678466796875 C 19.85134124755859 88.678466796875 0 68.82710266113281 0 44.3392333984375 C 0 19.85134124755859 19.85134124755859 0 44.3392333984375 0 Z" stroke="none" fill="rgba(209,209,209,0.48)"/>
  </g>
  <path id="Icon_metro-cross" data-name="Icon metro-cross" d="M37.654,30.373h0L26.913,19.631,37.654,8.89h0a1.109,1.109,0,0,0,0-1.564L32.58,2.251a1.109,1.109,0,0,0-1.564,0h0L20.274,12.992,9.533,2.251h0a1.109,1.109,0,0,0-1.564,0L2.894,7.325a1.109,1.109,0,0,0,0,1.564h0L13.635,19.631,2.894,30.372h0a1.109,1.109,0,0,0,0,1.564l5.074,5.074a1.109,1.109,0,0,0,1.564,0h0L20.274,26.27,31.015,37.011h0a1.109,1.109,0,0,0,1.564,0l5.074-5.074a1.109,1.109,0,0,0,0-1.564Z" transform="translate(24.429 25.072)" fill="#ef8b82"/>
</svg>
