<svg id="Component_17_1" data-name="Component 17 – 1" xmlns="http://www.w3.org/2000/svg" xmlns:xlink="http://www.w3.org/1999/xlink" width="116" height="116" viewBox="0 0 116 116">
  <defs>
    <linearGradient id="linear-gradient" x1="0.5" x2="0.5" y2="1" gradientUnits="objectBoundingBox">
      <stop offset="0" stop-color="#fee356"/>
      <stop offset="1" stop-color="#fff"/>
    </linearGradient>
  </defs>
  <rect id="Rectangle_7" data-name="Rectangle 7" width="116" height="116" rx="25" fill="url(#linear-gradient)"/>
  <path id="Icon_awesome-volleyball-ball" data-name="Icon awesome-volleyball-ball" d="M36.587,38.537a46.051,46.051,0,0,0-3.661-17.046A52.552,52.552,0,0,0,3.851,56.453a40.155,40.155,0,0,0,9.176,13.079A53.841,53.841,0,0,1,36.587,38.537ZM30.637,16.863a45.836,45.836,0,0,0-9.257-11.4A39.9,39.9,0,0,0,1.222,47.745,58.371,58.371,0,0,1,30.637,16.863ZM60.89,43.488A52.611,52.611,0,0,0,45.166.849,38.967,38.967,0,0,0,29.217,2.22,53.841,53.841,0,0,1,44.3,38.137,45.96,45.96,0,0,0,60.89,43.488ZM40.78,45.02A46.175,46.175,0,0,0,27.847,56.728,52.577,52.577,0,0,0,72.6,64.436a39.856,39.856,0,0,0,6.805-14.5,54.2,54.2,0,0,1-13.046,1.677,54.071,54.071,0,0,1-25.576-6.6ZM24.928,61.1a45.869,45.869,0,0,0-5.177,13.578,39.844,39.844,0,0,0,46.605-3.564A58.154,58.154,0,0,1,24.928,61.1ZM54,2.946a58.215,58.215,0,0,1,12.03,40.9A46.216,46.216,0,0,0,80.5,41.553c0-.323.048-.645.048-.968A39.964,39.964,0,0,0,54,2.946Z" transform="translate(17.437 17.437)"/>
</svg>
