<svg xmlns="http://www.w3.org/2000/svg" xmlns:xlink="http://www.w3.org/1999/xlink" width="116" height="116" viewBox="0 0 116 116">
  <defs>
    <linearGradient id="linear-gradient" x1="0.5" x2="0.5" y2="1" gradientUnits="objectBoundingBox">
      <stop offset="0" stop-color="#fee356"/>
      <stop offset="1" stop-color="#fff"/>
    </linearGradient>
  </defs>
  <g id="Group_8" data-name="Group 8" transform="translate(-1198 -555)">
    <rect id="Rectangle_8" data-name="Rectangle 8" width="116" height="116" rx="25" transform="translate(1198 555)" fill="url(#linear-gradient)"/>
    <path id="Bez_názvu-1" data-name="Bez názvu-1" d="M92.8,326.041c.248-.286.448-.525.659-.754a1.614,1.614,0,1,1,2.518,2.021c-.107.152-.22.3-.371.5l3.214,2.035c.277-.323.525-.623.786-.914a1.648,1.648,0,0,1,2.341-.211,1.609,1.609,0,0,1,.136,2.3c-.139.179-.287.357-.479.578l3.23,2.051c.323-.378.621-.745.939-1.094a1.644,1.644,0,0,1,2.291-.284,1.627,1.627,0,0,1,.2,2.337c-.189.246-.391.482-.628.773.179.127.337.245.5.357a39.934,39.934,0,0,0,16.653,6.381,21.1,21.1,0,0,1,4.43,1.021,9.73,9.73,0,0,1,6.4,8.5,4.936,4.936,0,0,1-1.2,3.514,16.735,16.735,0,0,1-5.965,4.931,41.415,41.415,0,0,1-12.425,4.017,103.747,103.747,0,0,1-22.351,1.25c-3.91-.154-7.815-.461-11.723-.675-1.289-.071-2.582-.091-3.873-.093q-11.09-.014-22.183,0A9.915,9.915,0,0,1,45.65,354.34v-2.687a4.074,4.074,0,0,1,2.082-3.612,1.177,1.177,0,0,0,.514-.684c.439-2.394.97-4.785,1.2-7.2a23.787,23.787,0,0,0-.254-4.846,16.533,16.533,0,0,1,.421-7.474,12.855,12.855,0,0,1,2.489-4.3,2.725,2.725,0,0,1,1.364-.771,15.509,15.509,0,0,1,7.594.4,31.693,31.693,0,0,1,10.97,5.8,5.529,5.529,0,0,0,6.844.336,19,19,0,0,0,5.91-6,1.7,1.7,0,0,1,2.732-.593Zm-40.218,2.716h1.169c.309,0,.623.023.936.046a23.909,23.909,0,0,1,12.439,4.744,28.275,28.275,0,0,0,8.833,4.424c2.719.78,5.476,1.428,8.213,2.143a23,23,0,0,1,9.492,4.676,26.189,26.189,0,0,1,6.146,8.263.949.949,0,0,0,.939.616,159.993,159.993,0,0,0,20.165-.221c.714-.059,1.412-.152,2.118-.227a1.084,1.084,0,0,0-.536-.373c-2.917-.907-5.819-1.878-8.761-2.694a7.476,7.476,0,0,1-5.6-8.2,20.423,20.423,0,0,1,.482-2.087L105.5,337.9c-.3.357-.564.675-.843.978a1.6,1.6,0,0,1-2.291.179,1.585,1.585,0,0,1-.179-2.25c.157-.211.332-.409.536-.666L99.493,334.1c-.341.4-.645.766-.961,1.123a1.609,1.609,0,0,1-2.33.239,1.593,1.593,0,0,1-.161-2.291c.209-.273.432-.536.671-.834L93.474,330.3c-.421.5-.782.955-1.178,1.382a1.612,1.612,0,1,1-2.464-2.078c.264-.345.548-.673.861-1.052l-3.81-2.416a.676.676,0,0,0-.146.08c-.12.143-.237.289-.357.437a22.425,22.425,0,0,1-4.773,4.733,10.05,10.05,0,0,1-6.883,2.134,9.035,9.035,0,0,1-4.7-2,30.6,30.6,0,0,0-7.967-4.617,15.974,15.974,0,0,0-6.844-1.145c-.321.023-.78.046-.923.246C53.7,326.828,53.212,327.731,52.581,328.756Zm76.87,26.975c-.032-.066-.066-.13-.1-.195a.368.368,0,0,0-.12-.021,82.432,82.432,0,0,1-14.889,1.559c-5.855.179-11.7,0-17.548-.371a62.53,62.53,0,0,1-10.661-1.225,76.971,76.971,0,0,1-7.569-2.11,55.582,55.582,0,0,0-15.046-2.841,91.8,91.8,0,0,0-13.605.223c-.778.068-1.021.33-1.028,1.112v2.5a6.707,6.707,0,0,0,7.01,6.99c3.185,0,6.372.021,9.559,0,8.768-.064,17.526.093,26.284.68a99.686,99.686,0,0,0,22.554-.921,41.285,41.285,0,0,0,11.306-3.246C126.918,357.231,128.166,356.445,129.451,355.731Zm-33.078-2.285c-.33-.562-.573-.991-.828-1.412a17.676,17.676,0,0,0-10.24-8.177c-2.31-.689-4.655-1.27-7-1.852a36.333,36.333,0,0,1-11.277-4.594c-1.462-.955-2.873-2-4.39-2.857A18.737,18.737,0,0,0,52.8,331.99c-.491.013-.668.155-.6.655.112.845.2,1.694.257,2.546.032.462.248.634.675.8a60.808,60.808,0,0,1,6.112,2.5,17.677,17.677,0,0,1,8.683,8.874.884.884,0,0,0,.609.379,49.664,49.664,0,0,1,10.331,2.342,52.95,52.95,0,0,0,12.48,2.959c1.621.161,3.253.261,5.03.4ZM111.55,341.5a5.56,5.56,0,0,0-.162.536,4.226,4.226,0,0,0,3.358,5.031,54.445,54.445,0,0,1,13.727,5.03,1.176,1.176,0,0,0,.764.1c.87-.2,1.721-.48,2.591-.687.446-.105.5-.318.382-.714a6.681,6.681,0,0,0-4.989-4.919c-.661-.179-1.344-.271-2.019-.395A54.19,54.19,0,0,1,115.162,343c-1.2-.473-2.382-.984-3.616-1.5ZM51.63,347.25H64.281c-2.7-4.308-6.844-6.428-11.382-7.979C52.467,341.99,52.047,344.629,51.63,347.25Z" transform="translate(1165.35 268.743)"/>
  </g>
</svg>
